#N canvas 71 58 450 300 10;
#X obj 95 35 inlet;
#X obj 235 82 r C;
#X msg 229 124 48;
#X obj 212 156 mtof;
#X obj 277 116 osc~;
#X obj 277 151 *~;
#X obj 262 179 +~;
#X obj 262 207 osc~;
#X obj 262 234 dac~;
#X obj 277 88 r mod_frequency;
#X obj 316 136 r mod_depth;
#X obj 145 213 *~;
#X obj 43 104 vsl 15 128 0 1 0 0 empty empty empty 0 -9 0 10 -262144
-1 -1 0 1;
#X obj 145 237 *~;
#X obj 144 110 t b f;
#X obj 145 190 ead~ 500 200;
#X connect 1 0 14 0;
#X connect 2 0 3 0;
#X connect 3 0 6 0;
#X connect 4 0 5 0;
#X connect 5 0 6 1;
#X connect 6 0 7 0;
#X connect 7 0 11 1;
#X connect 9 0 4 0;
#X connect 10 0 5 1;
#X connect 11 0 13 0;
#X connect 12 0 13 1;
#X connect 13 0 8 0;
#X connect 13 0 8 1;
#X connect 14 0 15 0;
#X connect 14 1 2 0;
#X connect 15 0 11 0;
