#N canvas 0 0 1354 685 10;
#X declare -lib mrpeach;
#N canvas 0 0 1354 685 kick 0;
#X obj -3 247 osc~;
#X obj -3 168 line;
#X floatatom -3 196 5 0 0 0 - - -;
#X obj 193 97 bng 15 250 50 0 empty empty empty 17 7 0 10 -262144 -1
-1;
#X obj -5 544 *~;
#X obj 131 278 line~;
#X msg 69 218 0.25;
#X obj -191 406 bp~;
#X obj -192 306 noise~;
#X obj -191 457 bp~;
#X floatatom -117 462 5 0 0 0 - - -;
#X msg -117 440 261.63;
#X msg -156 420 3;
#X obj -180 165 loadbang;
#X floatatom -171 375 5 0 0 0 - - -;
#X msg -171 355 261.63;
#X obj -114 261 line;
#X obj -162 540 *~;
#X obj -4 348 *~;
#X msg -147 512 0.43;
#X msg 9 320 0.64;
#X obj 133 22 inlet;
#X obj 250 35 r BPM;
#X obj 193 67 metro;
#X floatatom 286 63 5 0 0 0 - - -;
#X msg -2 133 261.63 \, 65.406 50;
#X msg 131 244 1 \, 0 100;
#X obj 12 586 *~;
#X msg 54 558 1.3;
#X obj 401 573 outlet~;
#X obj 401 538 *~;
#X obj 358 226 % 16;
#X floatatom 442 235 5 0 0 0 - - -;
#X obj 320 182 f;
#X obj 375 182 + 1;
#X obj 339 301 select 0 1 2 3 4 5 6 7 8 9 10 11 12 13 14 15;
#X floatatom 128 408 5 0 0 0 - - -;
#X floatatom 173 408 5 0 0 0 - - -;
#X floatatom 214 407 5 0 0 0 - - -;
#X floatatom 257 406 5 0 0 0 - - -;
#X floatatom 298 404 5 0 0 0 - - -;
#X floatatom 339 405 5 0 0 0 - - -;
#X floatatom 381 404 5 0 0 0 - - -;
#X floatatom 421 403 5 0 0 0 - - -;
#X floatatom 465 402 5 0 0 0 - - -;
#X floatatom 510 402 5 0 0 0 - - -;
#X floatatom 551 401 5 0 0 0 - - -;
#X floatatom 594 401 5 0 0 0 - - -;
#X floatatom 635 400 5 0 0 0 - - -;
#X floatatom 676 400 5 0 0 0 - - -;
#X floatatom 718 399 5 0 0 0 - - -;
#X floatatom 758 399 5 0 0 0 - - -;
#X obj 128 386 r l1;
#X obj 173 386 r l2;
#X obj 214 385 r l3;
#X obj 257 383 r l4;
#X obj 298 382 r l5;
#X obj 339 383 r l6;
#X obj 381 382 r l7;
#X obj 421 380 r l8;
#X obj 465 380 r l9;
#X obj 510 380 r l10;
#X obj 552 378 r l11;
#X obj 594 378 r l12;
#X obj 635 378 r l13;
#X obj 676 378 r l14;
#X obj 718 377 r l15;
#X obj 758 376 r l16;
#X msg -130 225 261.63 \, 130.81 50;
#X text 409 280 KICK DRUM SEQUENCER;
#X text -113 100 KICK DRUM Synthesis (C tuned);
#X connect 0 0 18 0;
#X connect 1 0 2 0;
#X connect 2 0 0 0;
#X connect 3 0 26 0;
#X connect 3 0 25 0;
#X connect 3 0 6 0;
#X connect 3 0 33 0;
#X connect 4 0 27 0;
#X connect 5 0 4 1;
#X connect 6 0 0 1;
#X connect 7 0 9 0;
#X connect 8 0 7 0;
#X connect 9 0 17 0;
#X connect 10 0 9 1;
#X connect 11 0 10 0;
#X connect 12 0 7 2;
#X connect 12 0 9 2;
#X connect 13 0 12 0;
#X connect 13 0 15 0;
#X connect 13 0 20 0;
#X connect 13 0 19 0;
#X connect 13 0 14 0;
#X connect 13 0 11 0;
#X connect 13 0 28 0;
#X connect 14 0 7 1;
#X connect 15 0 14 0;
#X connect 16 0 14 0;
#X connect 16 0 10 0;
#X connect 17 0 4 0;
#X connect 18 0 4 0;
#X connect 19 0 17 1;
#X connect 20 0 18 1;
#X connect 21 0 23 0;
#X connect 22 0 23 1;
#X connect 22 0 24 0;
#X connect 23 0 3 0;
#X connect 25 0 1 0;
#X connect 26 0 5 0;
#X connect 27 0 30 1;
#X connect 28 0 27 1;
#X connect 30 0 29 0;
#X connect 31 0 32 0;
#X connect 32 0 35 0;
#X connect 33 0 34 0;
#X connect 33 0 31 0;
#X connect 34 0 33 1;
#X connect 35 0 36 0;
#X connect 35 1 37 0;
#X connect 35 2 38 0;
#X connect 35 3 39 0;
#X connect 35 4 40 0;
#X connect 35 5 41 0;
#X connect 35 6 42 0;
#X connect 35 7 43 0;
#X connect 35 8 44 0;
#X connect 35 9 45 0;
#X connect 35 10 46 0;
#X connect 35 11 47 0;
#X connect 35 12 48 0;
#X connect 35 13 49 0;
#X connect 35 14 50 0;
#X connect 35 15 51 0;
#X connect 36 0 30 0;
#X connect 37 0 30 0;
#X connect 38 0 30 0;
#X connect 39 0 30 0;
#X connect 40 0 30 0;
#X connect 41 0 30 0;
#X connect 42 0 30 0;
#X connect 43 0 30 0;
#X connect 44 0 30 0;
#X connect 45 0 30 0;
#X connect 46 0 30 0;
#X connect 47 0 30 0;
#X connect 48 0 30 0;
#X connect 49 0 30 0;
#X connect 50 0 30 0;
#X connect 51 0 30 0;
#X connect 52 0 36 0;
#X connect 53 0 37 0;
#X connect 54 0 38 0;
#X connect 55 0 39 0;
#X connect 56 0 40 0;
#X connect 57 0 41 0;
#X connect 58 0 42 0;
#X connect 59 0 43 0;
#X connect 60 0 44 0;
#X connect 61 0 45 0;
#X connect 62 0 46 0;
#X connect 63 0 47 0;
#X connect 64 0 48 0;
#X connect 65 0 49 0;
#X connect 66 0 50 0;
#X connect 67 0 51 0;
#X connect 68 0 16 0;
#X restore -398 282 pd kick;
#X obj -355 525 *~;
#X obj -230 562 hsl 128 15 0 1 0 0 empty empty Master -2 -8 0 10 -262144
-1 -1 10160 1;
#X obj -372 563 dac~;
#X obj -475 40 s BPM;
#X floatatom -475 7 5 0 0 0 - - -;
#X obj -397 462 *~;
#X obj -475 -49 loadbang;
#X obj -166 -40 tgl 15 0 empty empty empty 17 7 0 10 -262144 -1 -1
0 1;
#X obj -382 324 vsl 15 128 0 1 0 0 empty empty Kick 0 -9 0 10 -262144
-1 -1 10160 1;
#X obj -91 501 *~;
#X obj -35 370 vsl 15 128 0 1 0 0 empty empty Hat 0 -9 0 10 -262144
-1 -1 1270 1;
#N canvas 605 43 681 676 Hat 0;
#X obj 131 201 osc~;
#X obj 131 233 *~;
#X obj 131 261 osc~;
#X obj 267 352 *~;
#X obj 295 270 line~;
#X msg 249 299 0;
#X msg 300 235 1 \, 0 10;
#X obj 130 168 +~;
#X floatatom 109 132 5 0 0 0 - - -;
#X floatatom 169 145 5 0 0 0 - - -;
#X floatatom 224 186 5 0 0 0 - - -;
#X obj 188 195 *~;
#X obj 110 335 osc~;
#X obj 110 303 -~;
#X msg 227 149 300;
#X obj 155 283 *~;
#X msg 167 109 1400;
#X msg 109 103 600;
#X obj 174 69 loadbang;
#X obj 294 169 inlet;
#X obj 268 402 outlet~;
#X obj 366 156 r BPM;
#X obj 296 203 metro 250;
#X obj 364 183 / 1;
#X text 318 87 Hat/Counter Synthesis;
#X connect 0 0 1 0;
#X connect 1 0 2 0;
#X connect 2 0 15 0;
#X connect 3 0 20 0;
#X connect 4 0 3 1;
#X connect 5 0 3 1;
#X connect 6 0 4 0;
#X connect 7 0 0 0;
#X connect 7 0 11 0;
#X connect 8 0 7 0;
#X connect 8 0 13 0;
#X connect 9 0 7 1;
#X connect 10 0 11 1;
#X connect 11 0 1 1;
#X connect 11 0 15 1;
#X connect 12 0 3 0;
#X connect 13 0 12 0;
#X connect 14 0 10 0;
#X connect 15 0 13 1;
#X connect 16 0 9 0;
#X connect 17 0 8 0;
#X connect 18 0 17 0;
#X connect 18 0 16 0;
#X connect 18 0 14 0;
#X connect 19 0 22 0;
#X connect 21 0 23 0;
#X connect 22 0 6 0;
#X connect 23 0 22 1;
#X restore -148 484 pd Hat;
#X obj -148 452 tgl 15 0 empty empty empty 17 7 0 10 -262144 -1 -1
0 1;
#X obj -271 403 *~;
#X obj -250 249 vsl 15 128 0 1 0 0 empty empty Snare 0 -9 0 10 -262144
-1 -1 5080 1;
#N canvas 0 0 1354 685 snare 0;
#X obj 328 117 noise~;
#X obj 329 141 tabwrite~ snare;
#X obj 393 116 table snare 50000;
#X obj 70 126 bng 15 250 50 0 empty empty empty 17 7 0 10 -262144 -1
-1;
#X obj -60 105 phasor~;
#X obj -61 132 *~ 50000;
#X msg -59 67 16.417;
#X obj -82 202 *~;
#X obj -141 217 line;
#X obj -45 266 *~;
#X obj -169 320 line;
#X obj -106 403 osc~;
#X obj -105 442 *~;
#X obj -38 425 line;
#X msg -38 389 1 \, 0 50;
#X obj -61 162 tabread4~ snare;
#X obj 71 64 metro 500;
#X msg -123 288 100 \, 1000 50;
#X msg -183 171 50 \, 1000 50;
#X obj 313 571 outlet~;
#X obj 71 30 inlet;
#X obj 150 29 r BPM;
#X obj 313 536 *~;
#X obj 270 224 % 16;
#X floatatom 354 233 5 0 0 0 - - -;
#X obj 232 180 f;
#X obj 287 180 + 1;
#X obj 155 55 / 1;
#X obj 40 384 r n1;
#X obj 251 299 select 0 1 2 3 4 5 6 7 8 9 10 11 12 13 14 15;
#X floatatom 40 406 5 0 0 0 - - -;
#X floatatom 85 406 5 0 0 0 - - -;
#X obj 85 384 r n2;
#X floatatom 126 405 5 0 0 0 - - -;
#X floatatom 169 404 5 0 0 0 - - -;
#X obj 126 383 r n3;
#X obj 169 381 r n4;
#X floatatom 210 402 5 0 0 0 - - -;
#X floatatom 251 403 5 0 0 0 - - -;
#X floatatom 293 402 5 0 0 0 - - -;
#X floatatom 333 401 5 0 0 0 - - -;
#X obj 210 380 r n5;
#X obj 251 381 r n6;
#X obj 293 380 r n7;
#X obj 333 378 r n8;
#X floatatom 377 400 5 0 0 0 - - -;
#X floatatom 422 400 5 0 0 0 - - -;
#X floatatom 463 399 5 0 0 0 - - -;
#X floatatom 506 399 5 0 0 0 - - -;
#X floatatom 547 398 5 0 0 0 - - -;
#X floatatom 588 398 5 0 0 0 - - -;
#X floatatom 630 397 5 0 0 0 - - -;
#X floatatom 670 397 5 0 0 0 - - -;
#X obj 377 378 r n9;
#X obj 422 378 r n10;
#X obj 463 377 r n11;
#X obj 506 376 r n12;
#X obj 547 376 r n13;
#X obj 588 376 r n14;
#X obj 630 375 r n15;
#X obj 670 374 r n16;
#X text 334 275 SNARE SEQUENCER;
#X text -160 42 SNARE Synthesis;
#N canvas 0 0 1354 685 touch 0;
#X obj 201 42 import mrpeach;
#X obj 200 109 unpackOSC;
#X obj 201 77 udpreceive 8000;
#X obj 137 126 print osc;
#X obj 201 139 routeOSC /2/multitoggle/6/1;
#X obj 203 173 s n1;
#X obj 373 163 s n2;
#X obj 371 129 routeOSC /2/multitoggle/6/2;
#X obj 203 225 s n3;
#X obj 382 229 s n4;
#X obj 383 277 s n6;
#X obj 199 324 s n7;
#X obj 378 328 s n8;
#X obj 198 377 s n9;
#X obj 377 381 s n10;
#X obj 198 426 s n11;
#X obj 377 430 s n12;
#X obj 198 474 s n13;
#X obj 377 478 s n14;
#X obj 200 517 s n15;
#X obj 379 521 s n16;
#X obj 203 204 routeOSC /2/multitoggle/6/3;
#X obj 204 252 routeOSC /2/multitoggle/6/5;
#X obj 383 256 routeOSC /2/multitoggle/6/6;
#X obj 378 307 routeOSC /2/multitoggle/6/8;
#X obj 377 360 routeOSC /2/multitoggle/6/10;
#X obj 382 208 routeOSC /2/multitoggle/6/4;
#X obj 377 409 routeOSC /2/multitoggle/6/12;
#X obj 377 457 routeOSC /2/multitoggle/6/14;
#X obj 379 500 routeOSC /2/multitoggle/6/16;
#X obj 199 303 routeOSC /2/multitoggle/6/7;
#X obj 198 356 routeOSC /2/multitoggle/6/9;
#X obj 198 405 routeOSC /2/multitoggle/6/11;
#X obj 198 453 routeOSC /2/multitoggle/6/13;
#X obj 200 496 routeOSC /2/multitoggle/6/15;
#X obj 204 273 s n5;
#X obj 132 186 routeOSC /2/multitoggle/5/1;
#X obj 302 176 routeOSC /2/multitoggle/5/2;
#X obj 134 251 routeOSC /2/multitoggle/5/3;
#X obj 313 255 routeOSC /2/multitoggle/5/4;
#X obj 135 299 routeOSC /2/multitoggle/5/5;
#X obj 314 303 routeOSC /2/multitoggle/5/6;
#X obj 130 350 routeOSC /2/multitoggle/5/7;
#X obj 309 354 routeOSC /2/multitoggle/5/8;
#X obj 129 403 routeOSC /2/multitoggle/5/9;
#X obj 308 407 routeOSC /2/multitoggle/5/10;
#X obj 129 452 routeOSC /2/multitoggle/5/11;
#X obj 308 456 routeOSC /2/multitoggle/5/12;
#X obj 129 500 routeOSC /2/multitoggle/5/13;
#X obj 308 504 routeOSC /2/multitoggle/5/14;
#X obj 131 543 routeOSC /2/multitoggle/5/15;
#X obj 134 220 s l1;
#X obj 304 210 s l2;
#X obj 134 272 s l3;
#X obj 313 276 s l4;
#X obj 314 324 s l6;
#X obj 135 320 s l5;
#X obj 130 371 s l7;
#X obj 309 375 s l8;
#X obj 129 424 s l9;
#X obj 308 428 s l10;
#X obj 129 473 s l11;
#X obj 308 477 s l12;
#X obj 129 521 s l13;
#X obj 308 525 s l14;
#X obj 131 564 s l15;
#X obj 310 568 s l16;
#X obj 310 547 routeOSC /2/multitoggle/5/16;
#X text 199 15 OSC Commands for Kick and Snare;
#X obj 744 114 routeOSC /1/fader1A;
#X obj 876 114 routeOSC /1/fader1B;
#X obj 745 159 routeOSC /1/fader2A;
#X obj 877 159 routeOSC /1/fader2B;
#X obj 745 218 routeOSC /1/fader3A;
#X obj 877 218 routeOSC /1/fader3B;
#X obj 741 272 routeOSC /1/fader4A;
#X obj 873 272 routeOSC /1/fader4B;
#X obj 745 332 routeOSC /1/fader5A;
#X obj 877 332 routeOSC /1/fader5B;
#X obj 745 401 routeOSC /1/fader6A;
#X obj 877 401 routeOSC /1/fader6B;
#X obj 750 451 routeOSC /1/fader7A;
#X obj 882 451 routeOSC /1/fader7B;
#X obj 749 498 routeOSC /1/fader8A;
#X obj 881 498 routeOSC /1/fader8B;
#X obj 743 136 s 1A;
#X obj 876 137 s 1B;
#X obj 744 552 routeOSC /1/faderA;
#X obj 876 552 routeOSC /1/faderB;
#X obj 744 182 s 2A;
#X obj 877 183 s 2B;
#X obj 747 241 s 3A;
#X obj 880 242 s 3B;
#X obj 739 300 s 4A;
#X obj 872 301 s 4B;
#X obj 744 359 s 5A;
#X obj 877 360 s 5B;
#X obj 744 427 s 6A;
#X obj 877 428 s 6B;
#X obj 751 474 s 7A;
#X obj 884 475 s 7B;
#X obj 747 526 s 8A;
#X obj 880 527 s 8B;
#X obj 742 580 s Aa;
#X obj 875 581 s Bb;
#X connect 0 0 2 0;
#X connect 1 0 3 0;
#X connect 1 0 4 0;
#X connect 1 0 7 0;
#X connect 1 0 21 0;
#X connect 1 0 22 0;
#X connect 1 0 23 0;
#X connect 1 0 24 0;
#X connect 1 0 25 0;
#X connect 1 0 26 0;
#X connect 1 0 27 0;
#X connect 1 0 28 0;
#X connect 1 0 29 0;
#X connect 1 0 30 0;
#X connect 1 0 31 0;
#X connect 1 0 32 0;
#X connect 1 0 33 0;
#X connect 1 0 34 0;
#X connect 1 0 36 0;
#X connect 1 0 38 0;
#X connect 1 0 40 0;
#X connect 1 0 37 0;
#X connect 1 0 39 0;
#X connect 1 0 41 0;
#X connect 1 0 43 0;
#X connect 1 0 45 0;
#X connect 1 0 47 0;
#X connect 1 0 49 0;
#X connect 1 0 67 0;
#X connect 1 0 42 0;
#X connect 1 0 44 0;
#X connect 1 0 46 0;
#X connect 1 0 48 0;
#X connect 1 0 50 0;
#X connect 1 0 69 0;
#X connect 1 0 71 0;
#X connect 1 0 73 0;
#X connect 1 0 75 0;
#X connect 1 0 77 0;
#X connect 1 0 79 0;
#X connect 1 0 81 0;
#X connect 1 0 83 0;
#X connect 1 0 87 0;
#X connect 1 0 70 0;
#X connect 1 0 72 0;
#X connect 1 0 74 0;
#X connect 1 0 76 0;
#X connect 1 0 78 0;
#X connect 1 0 80 0;
#X connect 1 0 82 0;
#X connect 1 0 84 0;
#X connect 1 0 88 0;
#X connect 2 0 1 0;
#X connect 4 0 5 0;
#X connect 7 0 6 0;
#X connect 21 0 8 0;
#X connect 22 0 35 0;
#X connect 23 0 10 0;
#X connect 24 0 12 0;
#X connect 25 0 14 0;
#X connect 26 0 9 0;
#X connect 27 0 16 0;
#X connect 28 0 18 0;
#X connect 29 0 20 0;
#X connect 30 0 11 0;
#X connect 31 0 13 0;
#X connect 32 0 15 0;
#X connect 33 0 17 0;
#X connect 34 0 19 0;
#X connect 36 0 51 0;
#X connect 37 0 52 0;
#X connect 38 0 53 0;
#X connect 39 0 54 0;
#X connect 40 0 56 0;
#X connect 41 0 55 0;
#X connect 42 0 57 0;
#X connect 43 0 58 0;
#X connect 44 0 59 0;
#X connect 45 0 60 0;
#X connect 46 0 61 0;
#X connect 47 0 62 0;
#X connect 48 0 63 0;
#X connect 49 0 64 0;
#X connect 50 0 65 0;
#X connect 67 0 66 0;
#X connect 69 0 85 0;
#X connect 70 0 86 0;
#X connect 71 0 89 0;
#X connect 72 0 90 0;
#X connect 73 0 91 0;
#X connect 74 0 92 0;
#X connect 75 0 93 0;
#X connect 76 0 94 0;
#X connect 77 0 95 0;
#X connect 78 0 96 0;
#X connect 79 0 97 0;
#X connect 80 0 98 0;
#X connect 81 0 99 0;
#X connect 82 0 100 0;
#X connect 83 0 101 0;
#X connect 84 0 102 0;
#X connect 87 0 103 0;
#X connect 88 0 104 0;
#X restore 784 112 pd touch;
#X connect 0 0 1 0;
#X connect 3 0 18 0;
#X connect 3 0 17 0;
#X connect 3 0 6 0;
#X connect 3 0 1 0;
#X connect 3 0 14 0;
#X connect 3 0 25 0;
#X connect 4 0 5 0;
#X connect 5 0 15 0;
#X connect 6 0 4 0;
#X connect 7 0 9 1;
#X connect 8 0 9 0;
#X connect 9 0 11 0;
#X connect 10 0 7 1;
#X connect 11 0 12 0;
#X connect 12 0 22 1;
#X connect 13 0 12 1;
#X connect 14 0 13 0;
#X connect 15 0 7 0;
#X connect 16 0 3 0;
#X connect 17 0 10 0;
#X connect 18 0 8 0;
#X connect 20 0 16 0;
#X connect 21 0 27 0;
#X connect 22 0 19 0;
#X connect 23 0 24 0;
#X connect 24 0 29 0;
#X connect 25 0 26 0;
#X connect 25 0 23 0;
#X connect 26 0 25 1;
#X connect 27 0 16 1;
#X connect 28 0 30 0;
#X connect 29 0 30 0;
#X connect 29 1 31 0;
#X connect 29 2 33 0;
#X connect 29 3 34 0;
#X connect 29 4 37 0;
#X connect 29 5 38 0;
#X connect 29 6 39 0;
#X connect 29 7 40 0;
#X connect 29 8 45 0;
#X connect 29 9 46 0;
#X connect 29 10 47 0;
#X connect 29 11 48 0;
#X connect 29 12 49 0;
#X connect 29 13 50 0;
#X connect 29 14 51 0;
#X connect 29 15 52 0;
#X connect 30 0 22 0;
#X connect 31 0 22 0;
#X connect 32 0 31 0;
#X connect 33 0 22 0;
#X connect 34 0 22 0;
#X connect 35 0 33 0;
#X connect 36 0 34 0;
#X connect 37 0 22 0;
#X connect 38 0 22 0;
#X connect 39 0 22 0;
#X connect 40 0 22 0;
#X connect 41 0 37 0;
#X connect 42 0 38 0;
#X connect 43 0 39 0;
#X connect 44 0 40 0;
#X connect 45 0 22 0;
#X connect 46 0 22 0;
#X connect 47 0 22 0;
#X connect 48 0 22 0;
#X connect 49 0 22 0;
#X connect 50 0 22 0;
#X connect 51 0 22 0;
#X connect 52 0 22 0;
#X connect 53 0 45 0;
#X connect 54 0 46 0;
#X connect 55 0 47 0;
#X connect 56 0 48 0;
#X connect 57 0 49 0;
#X connect 58 0 50 0;
#X connect 59 0 51 0;
#X connect 60 0 52 0;
#X restore -218 384 pd snare;
#X obj -218 185 tgl 15 0 empty empty empty 17 7 0 10 -262144 -1 -1
0 1;
#X msg -446 305 0.8;
#X msg -291 231 0.4;
#X msg -240 526 0.8;
#X msg -475 -20 250;
#X text -413 -46 Loading Initial Values;
#X text -129 -42 Toggle ON to Start beat in 16/16;
#X msg -87 352 0.1;
#N canvas 0 0 1354 685 noisegen 0;
#X obj -2776 550 *~;
#X obj -2953 385 bp~;
#X floatatom -2966 325 5 0 0 0 - - -;
#X floatatom -2992 425 5 0 0 0 - - -;
#X obj -3020 310 noise~;
#X obj -2836 351 bp~;
#X floatatom -2973 132 5 0 0 0 - - -;
#X floatatom -2791 330 5 0 0 0 - - -;
#X obj -2944 263 noise~;
#X obj -2759 403 *~;
#X obj -2610 492 +~;
#X obj -2716 307 bp~;
#X floatatom -2766 230 5 0 0 0 - - -;
#X floatatom -2701 260 5 0 0 0 - - -;
#X obj -2833 219 noise~;
#X obj -2624 322 *~;
#X obj -2608 384 +~;
#X obj -2585 236 bp~;
#X floatatom -2552 129 5 0 0 0 - - -;
#X floatatom -2503 195 5 0 0 0 - - -;
#X obj -2691 154 noise~;
#X obj -2418 356 *~;
#X obj -2394 455 +~;
#X obj -2439 161 bp~;
#X floatatom -2408 86 5 0 0 0 - - -;
#X floatatom -2300 236 5 0 0 0 - - -;
#X obj -2492 55 noise~;
#X obj -2333 364 *~;
#X obj -2244 143 bp~;
#X floatatom -2182 96 5 0 0 0 - - -;
#X floatatom -2134 164 5 0 0 0 - - -;
#X obj -2338 36 noise~;
#X obj -2261 362 *~;
#X obj -2360 453 +~;
#X obj -2362 496 +~;
#X obj -2034 194 bp~;
#X floatatom -2002 151 5 0 0 0 - - -;
#X floatatom -1989 173 5 0 0 0 - - -;
#X obj -2053 135 noise~;
#X obj -2122 413 *~;
#X obj -1984 314 bp~;
#X floatatom -1952 271 5 0 0 0 - - -;
#X floatatom -1939 293 5 0 0 0 - - -;
#X obj -2003 255 noise~;
#X obj -2071 494 *~;
#X obj -2309 454 +~;
#X obj -2358 531 +~;
#X msg -2965 299 131;
#X msg -2973 106 261;
#X msg -2763 203 522;
#X msg -2550 98 392;
#X msg -2408 63 494;
#X msg -2180 68 987;
#X msg -2001 121 1318;
#X msg -1950 244 1568;
#X obj -2769 81 loadbang;
#X obj -1889 379 bp~;
#X floatatom -1857 336 5 0 0 0 - - -;
#X floatatom -1844 358 5 0 0 0 - - -;
#X obj -1908 320 noise~;
#X obj -1916 461 *~;
#X obj -2017 429 hsl 128 15 0 1 0 0 empty empty empty -2 -8 0 10 -262144
-1 -1 0 1;
#X obj -1774 444 bp~;
#X floatatom -1742 401 5 0 0 0 - - -;
#X floatatom -1729 423 5 0 0 0 - - -;
#X obj -1793 385 noise~;
#X obj -1911 555 *~;
#X obj -2012 523 hsl 128 15 0 1 0 0 empty empty empty -2 -8 0 10 -262144
-1 -1 0 1;
#X obj -2299 464 +~;
#X obj -2162 533 +~;
#X obj -2357 558 +~;
#X msg -1855 309 2093;
#X msg -1740 374 1046;
#X obj -2360 585 vcf~;
#X floatatom -2298 566 5 0 0 0 - - -;
#X msg -2260 544 200;
#X obj -2305 603 hsl 128 15 0 3 0 0 empty empty empty -2 -8 0 10 -262144
-1 -1 0 1;
#X obj -2382 628 *~;
#X obj -2329 632 hsl 128 15 0 1 0 1 empty empty empty -2 -8 0 10 -262144
-1 -1 5066 1;
#X obj -2998 392 r 1B;
#X obj -2790 470 r 1A;
#X obj -2742 335 r 2A;
#X obj -2664 272 r 3A;
#X obj -2520 226 r 4A;
#X obj -2387 131 r 5A;
#X obj -2240 239 r 6A;
#X obj -2217 331 r 7A;
#X obj -2162 433 r 8A;
#X obj -2241 571 r Bb;
#X obj -2116 619 r Aa;
#X obj -2382 657 outlet~;
#X connect 0 0 10 0;
#X connect 1 0 0 0;
#X connect 2 0 1 1;
#X connect 3 0 1 2;
#X connect 4 0 1 0;
#X connect 5 0 9 0;
#X connect 6 0 5 1;
#X connect 7 0 5 2;
#X connect 8 0 5 0;
#X connect 9 0 10 1;
#X connect 10 0 22 1;
#X connect 11 0 15 0;
#X connect 12 0 11 1;
#X connect 13 0 11 2;
#X connect 14 0 11 0;
#X connect 15 0 16 0;
#X connect 16 0 22 0;
#X connect 17 0 21 0;
#X connect 18 0 17 1;
#X connect 19 0 17 2;
#X connect 20 0 17 0;
#X connect 21 0 16 1;
#X connect 22 0 34 0;
#X connect 23 0 27 0;
#X connect 24 0 23 1;
#X connect 25 0 23 2;
#X connect 26 0 23 0;
#X connect 27 0 33 0;
#X connect 28 0 32 0;
#X connect 29 0 28 1;
#X connect 30 0 28 2;
#X connect 31 0 28 0;
#X connect 32 0 33 1;
#X connect 33 0 34 1;
#X connect 34 0 46 0;
#X connect 35 0 39 0;
#X connect 36 0 35 1;
#X connect 37 0 35 2;
#X connect 38 0 35 0;
#X connect 39 0 45 0;
#X connect 40 0 44 0;
#X connect 41 0 40 1;
#X connect 42 0 40 2;
#X connect 43 0 40 0;
#X connect 44 0 45 1;
#X connect 45 0 46 1;
#X connect 46 0 70 0;
#X connect 47 0 2 0;
#X connect 48 0 6 0;
#X connect 49 0 12 0;
#X connect 50 0 18 0;
#X connect 51 0 24 0;
#X connect 52 0 29 0;
#X connect 53 0 36 0;
#X connect 54 0 41 0;
#X connect 55 0 47 0;
#X connect 55 0 48 0;
#X connect 55 0 49 0;
#X connect 55 0 50 0;
#X connect 55 0 51 0;
#X connect 55 0 52 0;
#X connect 55 0 53 0;
#X connect 55 0 54 0;
#X connect 55 0 71 0;
#X connect 55 0 72 0;
#X connect 56 0 60 0;
#X connect 57 0 56 1;
#X connect 58 0 56 2;
#X connect 59 0 56 0;
#X connect 60 0 69 0;
#X connect 61 0 60 1;
#X connect 62 0 66 0;
#X connect 63 0 62 1;
#X connect 64 0 62 2;
#X connect 65 0 62 0;
#X connect 66 0 69 1;
#X connect 67 0 66 1;
#X connect 69 0 70 1;
#X connect 70 0 73 0;
#X connect 71 0 57 0;
#X connect 72 0 63 0;
#X connect 73 0 77 0;
#X connect 74 0 73 1;
#X connect 75 0 74 0;
#X connect 76 0 73 2;
#X connect 77 0 90 0;
#X connect 78 0 77 1;
#X connect 79 0 3 0;
#X connect 80 0 0 1;
#X connect 81 0 9 1;
#X connect 82 0 15 1;
#X connect 83 0 21 1;
#X connect 84 0 27 1;
#X connect 85 0 32 1;
#X connect 86 0 39 1;
#X connect 87 0 44 1;
#X connect 88 0 76 0;
#X connect 89 0 78 0;
#X restore 98 152 pd noisegen;
#X connect 0 0 6 0;
#X connect 1 0 3 0;
#X connect 1 0 3 1;
#X connect 2 0 1 1;
#X connect 5 0 4 0;
#X connect 6 0 1 0;
#X connect 7 0 21 0;
#X connect 7 0 18 0;
#X connect 7 0 19 0;
#X connect 7 0 24 0;
#X connect 7 0 20 0;
#X connect 8 0 0 0;
#X connect 8 0 13 0;
#X connect 8 0 17 0;
#X connect 9 0 6 1;
#X connect 10 0 1 0;
#X connect 11 0 10 1;
#X connect 12 0 10 0;
#X connect 13 0 12 0;
#X connect 14 0 1 0;
#X connect 15 0 14 1;
#X connect 16 0 14 0;
#X connect 17 0 16 0;
#X connect 18 0 9 0;
#X connect 19 0 15 0;
#X connect 20 0 2 0;
#X connect 21 0 5 0;
#X connect 24 0 11 0;
