#N canvas 70 23 1280 703 10;
#X declare -lib bsaylor;
#X declare -lib mrpeach;
#X msg -15 -69 \; pd dsp 0;
#X msg -16 -107 \; pd dsp 1;
#X obj -17 -132 r start;
#X text -105 -94 AUDIO ON/OFF;
#X obj -114 15 import bsaylor;
#X text -141 -15 Importing Libraries;
#X obj 761 -92 import mrpeach;
#X obj 760 -25 unpackOSC;
#X obj 697 -8 print osc;
#X text 770 -119 OSC Commands;
#X obj 312 -114 bng 15 250 50 0 empty empty empty 17 7 0 10 -262144
-1 -1;
#X msg 360 -119 stop;
#X obj 282 -140 r start;
#X obj 351 -141 r pause;
#X obj 210 3 + 60;
#X obj 210 32 mtof;
#X obj 800 265 grid grid1 200 100 500 200 100 500 1 1 0.5 10 10 886
431;
#X obj 793 489 s mod_frequency;
#X obj 984 489 s mod_depth;
#X obj 92 65 r mod_frequency;
#X obj 92 98 *;
#X obj 91 134 osc~ 220;
#X obj 92 166 *~;
#X obj 92 195 +~ 440;
#X obj 92 224 osc~ 440;
#X obj 95 318 dac~;
#X obj 163 150 r mod_depth;
#X obj 170 211 vsl 15 128 0 0.1 0 0 empty empty empty 0 -9 0 10 -262144
-1 -1 0 1;
#X obj 93 284 *~ 0;
#X obj 213 -30 random 12;
#X obj -60 224 aenv~ 100 200 0.6 500;
#X obj -60 258 *~;
#X obj -60 187 tgl 15 0 empty empty empty 17 7 0 10 -262144 -1 -1 1
1;
#X floatatom 331 48 5 0 0 0 - - -;
#X obj 417 -19 + 1;
#X obj 368 77 select 0 1 2 3 4 5 6 7;
#X obj 322 -18 f 0;
#X obj 323 11 % 8;
#X text 429 49 SEQUENCER;
#X obj 486 125 bng 15 250 50 0 empty empty empty 17 7 0 10 -262144
-1 -1;
#X obj 508 126 bng 15 250 50 0 empty empty empty 17 7 0 10 -262144
-1 -1;
#X obj 528 126 bng 15 250 50 0 empty empty empty 17 7 0 10 -262144
-1 -1;
#X obj 548 127 bng 15 250 50 0 empty empty empty 17 7 0 10 -262144
-1 -1;
#X obj 569 127 bng 15 250 50 0 empty empty empty 17 7 0 10 -262144
-1 -1;
#X obj 589 127 bng 15 250 50 0 empty empty empty 17 7 0 10 -262144
-1 -1;
#X obj 610 127 bng 15 250 50 0 empty empty empty 17 7 0 10 -262144
-1 -1;
#X obj 632 127 bng 15 250 50 0 empty empty empty 17 7 0 10 -262144
-1 -1;
#X msg 459 156 40;
#X msg 490 156 43;
#X msg 521 156 45;
#X msg 553 156 43;
#X msg 583 156 50;
#X msg 615 155 48;
#X msg 679 154 52;
#X msg 647 154 50;
#X text 533 92 MELODY SEQUENCE;
#X obj 760 7 routeOSC /2;
#X obj 761 48 routeOSC /push1;
#X obj 761 73 routeOSC /push3;
#X obj 762 96 routeOSC /push5;
#X obj 888 48 routeOSC /push6;
#X obj 890 73 routeOSC /push8;
#X obj 891 97 routeOSC /push10;
#X obj 1013 45 routeOSC /push12;
#X obj 725 48 s C;
#X obj 725 75 s D;
#X obj 726 96 s E;
#X obj 861 47 s F;
#X obj 860 73 s G;
#X obj 860 97 s A;
#X obj 986 47 s B;
#X obj 367 230 r D;
#X obj 395 230 r E;
#X obj 422 231 r F;
#X obj 449 230 r G;
#X obj 477 229 r A;
#X obj 505 229 r B;
#X msg 394 265 40;
#X msg 426 265 41;
#X msg 456 265 43;
#X msg 488 264 45;
#X msg 520 263 47;
#X msg 363 265 50;
#X obj 350 296 mtof;
#X obj 384 295 mtof;
#X obj 416 295 mtof;
#X obj 451 295 mtof;
#X obj 487 294 mtof;
#X obj 522 295 mtof;
#X obj 761 -57 udpreceive 8001;
#X obj 322 -57 metro 170;
#N canvas 650 235 450 300 note 1;
#X obj 277 -104 osc~;
#X obj 277 -69 *~;
#X obj 262 -41 +~;
#X obj 262 -13 osc~;
#X obj 277 -132 r mod_frequency;
#X obj 316 -84 r mod_depth;
#X obj 145 -7 *~;
#X obj 145 -30 ead~ 500 200;
#X obj 146 20 *~;
#X obj 147 49 outlet~;
#X obj 144 -74 inlet;
#X obj 194 -82 inlet;
#X obj 244 30 inlet;
#X connect 0 0 1 0;
#X connect 1 0 2 1;
#X connect 2 0 3 0;
#X connect 3 0 6 1;
#X connect 4 0 0 0;
#X connect 5 0 1 1;
#X connect 6 0 8 0;
#X connect 7 0 6 0;
#X connect 8 0 9 0;
#X connect 10 0 7 0;
#X connect 11 0 2 0;
#X connect 12 0 8 1;
#X restore 246 376 pd note;
#X obj 339 231 r C;
#X msg 330 265 48;
#X obj 313 298 mtof;
#X obj 258 337 t b f;
#X obj 731 338 vsl 15 128 0 1 0 0 empty empty empty 0 -9 0 10 -262144
-1 -1 7000 1;
#X obj 313 337 t b f;
#N canvas 650 235 450 300 note 0;
#X obj 277 -104 osc~;
#X obj 277 -69 *~;
#X obj 262 -41 +~;
#X obj 262 -13 osc~;
#X obj 277 -132 r mod_frequency;
#X obj 316 -84 r mod_depth;
#X obj 145 -7 *~;
#X obj 145 -30 ead~ 500 200;
#X obj 146 20 *~;
#X obj 147 49 outlet~;
#X obj 144 -74 inlet;
#X obj 194 -82 inlet;
#X obj 244 30 inlet;
#X connect 0 0 1 0;
#X connect 1 0 2 1;
#X connect 2 0 3 0;
#X connect 3 0 6 1;
#X connect 4 0 0 0;
#X connect 5 0 1 1;
#X connect 6 0 8 0;
#X connect 7 0 6 0;
#X connect 8 0 9 0;
#X connect 10 0 7 0;
#X connect 11 0 2 0;
#X connect 12 0 8 1;
#X restore 307 373 pd note;
#X obj 370 336 t b f;
#N canvas 650 235 450 300 note 0;
#X obj 277 -104 osc~;
#X obj 277 -69 *~;
#X obj 262 -41 +~;
#X obj 262 -13 osc~;
#X obj 277 -132 r mod_frequency;
#X obj 316 -84 r mod_depth;
#X obj 145 -7 *~;
#X obj 145 -30 ead~ 500 200;
#X obj 146 20 *~;
#X obj 147 49 outlet~;
#X obj 144 -74 inlet;
#X obj 194 -82 inlet;
#X obj 244 30 inlet;
#X connect 0 0 1 0;
#X connect 1 0 2 1;
#X connect 2 0 3 0;
#X connect 3 0 6 1;
#X connect 4 0 0 0;
#X connect 5 0 1 1;
#X connect 6 0 8 0;
#X connect 7 0 6 0;
#X connect 8 0 9 0;
#X connect 10 0 7 0;
#X connect 11 0 2 0;
#X connect 12 0 8 1;
#X restore 364 372 pd note;
#X obj 425 335 t b f;
#N canvas 650 235 450 300 note 0;
#X obj 277 -104 osc~;
#X obj 277 -69 *~;
#X obj 262 -41 +~;
#X obj 262 -13 osc~;
#X obj 277 -132 r mod_frequency;
#X obj 316 -84 r mod_depth;
#X obj 145 -7 *~;
#X obj 145 -30 ead~ 500 200;
#X obj 146 20 *~;
#X obj 147 49 outlet~;
#X obj 144 -74 inlet;
#X obj 194 -82 inlet;
#X obj 244 30 inlet;
#X connect 0 0 1 0;
#X connect 1 0 2 1;
#X connect 2 0 3 0;
#X connect 3 0 6 1;
#X connect 4 0 0 0;
#X connect 5 0 1 1;
#X connect 6 0 8 0;
#X connect 7 0 6 0;
#X connect 8 0 9 0;
#X connect 10 0 7 0;
#X connect 11 0 2 0;
#X connect 12 0 8 1;
#X restore 419 371 pd note;
#X obj 482 333 t b f;
#N canvas 650 235 450 300 note 0;
#X obj 277 -104 osc~;
#X obj 277 -69 *~;
#X obj 262 -41 +~;
#X obj 262 -13 osc~;
#X obj 277 -132 r mod_frequency;
#X obj 316 -84 r mod_depth;
#X obj 145 -7 *~;
#X obj 145 -30 ead~ 500 200;
#X obj 146 20 *~;
#X obj 147 49 outlet~;
#X obj 144 -74 inlet;
#X obj 194 -82 inlet;
#X obj 244 30 inlet;
#X connect 0 0 1 0;
#X connect 1 0 2 1;
#X connect 2 0 3 0;
#X connect 3 0 6 1;
#X connect 4 0 0 0;
#X connect 5 0 1 1;
#X connect 6 0 8 0;
#X connect 7 0 6 0;
#X connect 8 0 9 0;
#X connect 10 0 7 0;
#X connect 11 0 2 0;
#X connect 12 0 8 1;
#X restore 476 369 pd note;
#X obj 535 331 t b f;
#N canvas 650 235 450 300 note 0;
#X obj 277 -104 osc~;
#X obj 277 -69 *~;
#X obj 262 -41 +~;
#X obj 262 -13 osc~;
#X obj 277 -132 r mod_frequency;
#X obj 316 -84 r mod_depth;
#X obj 145 -7 *~;
#X obj 145 -30 ead~ 500 200;
#X obj 146 20 *~;
#X obj 147 49 outlet~;
#X obj 144 -74 inlet;
#X obj 194 -82 inlet;
#X obj 244 30 inlet;
#X connect 0 0 1 0;
#X connect 1 0 2 1;
#X connect 2 0 3 0;
#X connect 3 0 6 1;
#X connect 4 0 0 0;
#X connect 5 0 1 1;
#X connect 6 0 8 0;
#X connect 7 0 6 0;
#X connect 8 0 9 0;
#X connect 10 0 7 0;
#X connect 11 0 2 0;
#X connect 12 0 8 1;
#X restore 529 367 pd note;
#X obj 591 328 t b f;
#N canvas 650 235 450 300 note 0;
#X obj 277 -104 osc~;
#X obj 277 -69 *~;
#X obj 262 -41 +~;
#X obj 262 -13 osc~;
#X obj 277 -132 r mod_frequency;
#X obj 316 -84 r mod_depth;
#X obj 145 -7 *~;
#X obj 145 -30 ead~ 500 200;
#X obj 146 20 *~;
#X obj 147 49 outlet~;
#X obj 144 -74 inlet;
#X obj 194 -82 inlet;
#X obj 244 30 inlet;
#X connect 0 0 1 0;
#X connect 1 0 2 1;
#X connect 2 0 3 0;
#X connect 3 0 6 1;
#X connect 4 0 0 0;
#X connect 5 0 1 1;
#X connect 6 0 8 0;
#X connect 7 0 6 0;
#X connect 8 0 9 0;
#X connect 10 0 7 0;
#X connect 11 0 2 0;
#X connect 12 0 8 1;
#X restore 585 364 pd note;
#X obj 648 329 t b f;
#N canvas 650 235 450 300 note 0;
#X obj 277 -104 osc~;
#X obj 277 -69 *~;
#X obj 262 -41 +~;
#X obj 262 -13 osc~;
#X obj 277 -132 r mod_frequency;
#X obj 316 -84 r mod_depth;
#X obj 145 -7 *~;
#X obj 145 -30 ead~ 500 200;
#X obj 146 20 *~;
#X obj 147 49 outlet~;
#X obj 144 -74 inlet;
#X obj 194 -82 inlet;
#X obj 244 30 inlet;
#X connect 0 0 1 0;
#X connect 1 0 2 1;
#X connect 2 0 3 0;
#X connect 3 0 6 1;
#X connect 4 0 0 0;
#X connect 5 0 1 1;
#X connect 6 0 8 0;
#X connect 7 0 6 0;
#X connect 8 0 9 0;
#X connect 10 0 7 0;
#X connect 11 0 2 0;
#X connect 12 0 8 1;
#X restore 642 365 pd note;
#X obj 360 425 dac~;
#X connect 2 0 1 0;
#X connect 6 0 89 0;
#X connect 7 0 56 0;
#X connect 10 0 90 0;
#X connect 11 0 90 0;
#X connect 12 0 10 0;
#X connect 13 0 11 0;
#X connect 14 0 15 0;
#X connect 15 0 23 1;
#X connect 15 0 21 1;
#X connect 16 0 17 0;
#X connect 16 1 18 0;
#X connect 19 0 20 0;
#X connect 20 0 21 0;
#X connect 21 0 22 0;
#X connect 22 0 23 0;
#X connect 23 0 24 0;
#X connect 24 0 31 1;
#X connect 26 0 22 1;
#X connect 27 0 28 1;
#X connect 28 0 25 0;
#X connect 28 0 25 1;
#X connect 29 0 14 0;
#X connect 30 0 31 0;
#X connect 31 0 28 0;
#X connect 32 0 30 0;
#X connect 33 0 35 0;
#X connect 34 0 36 1;
#X connect 35 0 39 0;
#X connect 35 1 40 0;
#X connect 35 2 41 0;
#X connect 35 3 42 0;
#X connect 35 4 43 0;
#X connect 35 5 44 0;
#X connect 35 6 45 0;
#X connect 35 7 46 0;
#X connect 36 0 34 0;
#X connect 36 0 37 0;
#X connect 37 0 33 0;
#X connect 39 0 47 0;
#X connect 40 0 48 0;
#X connect 41 0 49 0;
#X connect 42 0 50 0;
#X connect 43 0 51 0;
#X connect 44 0 52 0;
#X connect 45 0 54 0;
#X connect 46 0 53 0;
#X connect 56 0 57 0;
#X connect 56 0 58 0;
#X connect 56 0 59 0;
#X connect 56 0 60 0;
#X connect 56 0 61 0;
#X connect 56 0 62 0;
#X connect 56 0 63 0;
#X connect 57 0 64 0;
#X connect 58 0 65 0;
#X connect 59 0 66 0;
#X connect 60 0 67 0;
#X connect 61 0 68 0;
#X connect 62 0 69 0;
#X connect 63 0 70 0;
#X connect 71 0 97 0;
#X connect 72 0 77 0;
#X connect 73 0 78 0;
#X connect 74 0 79 0;
#X connect 75 0 80 0;
#X connect 76 0 81 0;
#X connect 77 0 84 0;
#X connect 78 0 85 0;
#X connect 79 0 86 0;
#X connect 80 0 87 0;
#X connect 81 0 88 0;
#X connect 82 0 83 0;
#X connect 83 0 98 1;
#X connect 89 0 7 0;
#X connect 90 0 29 0;
#X connect 90 0 36 0;
#X connect 91 0 111 0;
#X connect 92 0 95 0;
#X connect 93 0 94 0;
#X connect 94 0 91 1;
#X connect 95 0 91 0;
#X connect 95 1 93 0;
#X connect 96 0 98 2;
#X connect 96 0 91 2;
#X connect 97 0 98 0;
#X connect 97 1 82 0;
#X connect 98 0 111 0;
#X connect 99 0 100 0;
#X connect 101 0 102 0;
#X connect 103 0 104 0;
#X connect 105 0 106 0;
#X connect 107 0 108 0;
#X connect 109 0 110 0;
